HIERARCHY
ROOT Root
{
  OFFSET 0.0 0.0 0.0
  CHANNELS 6 Xposition Yposition Zposition Zrotation Yrotation Xrotation
  JOINT Hips
  {
    OFFSET 0.0 100.0 0.0
    CHANNELS 6 Xposition Yposition Zposition Zrotation Yrotation Xrotation
    JOINT Spine1
    {
      OFFSET -0.013727 5.003763 -0.053727
      CHANNELS 3 Zrotation Yrotation Xrotation
      JOINT Spine2
      {
        OFFSET -0.0 7.125301 -0.029825
        CHANNELS 3 Zrotation Yrotation Xrotation
        JOINT Chest
        {
          OFFSET -1e-06 7.550063 -0.815971
          CHANNELS 3 Zrotation Yrotation Xrotation
          JOINT Neck1
          {
            OFFSET -0.181677 26.311295 -0.553348
            CHANNELS 3 Zrotation Yrotation Xrotation
            JOINT Neck2
            {
              OFFSET -3e-06 7.709397 2.302585
              CHANNELS 3 Zrotation Yrotation Xrotation
              JOINT Head
              {
                OFFSET -5e-06 6.128916 1.953709
                CHANNELS 3 Zrotation Yrotation Xrotation
                JOINT HeadEnd
                {
                  OFFSET 0.003598 16.065403 -1.835379
                  CHANNELS 3 Zrotation Yrotation Xrotation
                }
                JOINT Jaw
                {
                  OFFSET 0.002637 0.475592 3.094941
                  CHANNELS 3 Zrotation Yrotation Xrotation
                }
                JOINT LeftEye
                {
                  OFFSET 3.206381 5.380205 7.586883
                  CHANNELS 3 Zrotation Yrotation Xrotation
                }
                JOINT RightEye
                {
                  OFFSET -3.22244 5.361869 7.558234
                  CHANNELS 3 Zrotation Yrotation Xrotation
                }
              }
            }
          }
          JOINT LeftShoulder
          {
            OFFSET 1.621652 23.237164 5.113413
            CHANNELS 3 Zrotation Yrotation Xrotation
            JOINT LeftArm
            {
              OFFSET 14.919846 2e-06 -5.502326
              CHANNELS 3 Zrotation Yrotation Xrotation
              JOINT LeftForeArm
              {
                OFFSET 28.739307 0.0 -0.002588
                CHANNELS 3 Zrotation Yrotation Xrotation
                JOINT LeftHand
                {
                  OFFSET 27.093981 -1e-06 0.002609
                  CHANNELS 3 Zrotation Yrotation Xrotation
                  JOINT LeftHandThumb1
                  {
                    OFFSET 2.276482 -1.392045 3.191413
                    CHANNELS 3 Zrotation Yrotation Xrotation
                    JOINT LeftHandThumb2
                    {
                      OFFSET 4.012836 -1.828127 1.641654
                      CHANNELS 3 Zrotation Yrotation Xrotation
                      JOINT LeftHandThumb3
                      {
                        OFFSET 2.798515 0.0 -3e-06
                        CHANNELS 3 Zrotation Yrotation Xrotation
                        JOINT LeftHandThumbEnd
                        {
                          OFFSET 3.180793 -4e-06 4e-06
                          CHANNELS 3 Zrotation Yrotation Xrotation
                        }
                      }
                    }
                  }
                  JOINT LeftHandIndex1
                  {
                    OFFSET 3.247555 -0.531998 2.296169
                    CHANNELS 3 Zrotation Yrotation Xrotation
                    JOINT LeftHandIndex2
                    {
                      OFFSET 6.364578 0.01206 0.1786
                      CHANNELS 3 Zrotation Yrotation Xrotation
                      JOINT LeftHandIndex3
                      {
                        OFFSET 3.662364 0.0 0.0
                        CHANNELS 3 Zrotation Yrotation Xrotation
                        JOINT LeftHandIndex4
                        {
                          OFFSET 2.329242 4e-06 4e-06
                          CHANNELS 3 Zrotation Yrotation Xrotation
                          JOINT LeftHandIndexEnd
                          {
                            OFFSET 2.759615 -0.180537 -0.113024
                            CHANNELS 3 Zrotation Yrotation Xrotation
                          }
                        }
                      }
                    }
                  }
                  JOINT LeftHandMiddle1
                  {
                    OFFSET 3.163495 0.240981 1.000332
                    CHANNELS 3 Zrotation Yrotation Xrotation
                    JOINT LeftHandMiddle2
                    {
                      OFFSET 6.19078 -0.259278 -1.002548
                      CHANNELS 3 Zrotation Yrotation Xrotation
                      JOINT LeftHandMiddle3
                      {
                        OFFSET 4.35652 -4e-06 -1e-06
                        CHANNELS 3 Zrotation Yrotation Xrotation
                        JOINT LeftHandMiddle4
                        {
                          OFFSET 2.996877 -8e-06 0.0
                          CHANNELS 3 Zrotation Yrotation Xrotation
                          JOINT LeftHandMiddleEnd
                          {
                            OFFSET 2.304287 -0.294569 -0.031741
                            CHANNELS 3 Zrotation Yrotation Xrotation
                          }
                        }
                      }
                    }
                  }
                  JOINT LeftHandRing1
                  {
                    OFFSET 2.882643 -0.053652 -0.322543
                    CHANNELS 3 Zrotation Yrotation Xrotation
                    JOINT LeftHandRing2
                    {
                      OFFSET 5.854541 -0.486202 -1.373841
                      CHANNELS 3 Zrotation Yrotation Xrotation
                      JOINT LeftHandRing3
                      {
                        OFFSET 4.350578 0.0 3e-06
                        CHANNELS 3 Zrotation Yrotation Xrotation
                        JOINT LeftHandRing4
                        {
                          OFFSET 2.651321 7e-06 2e-06
                          CHANNELS 3 Zrotation Yrotation Xrotation
                          JOINT LeftHandRingEnd
                          {
                            OFFSET 1.936105 0.077687 -7.1e-05
                            CHANNELS 3 Zrotation Yrotation Xrotation
                          }
                        }
                      }
                    }
                  }
                  JOINT LeftHandPinky1
                  {
                    OFFSET 2.8655 -0.310005 -1.600378
                    CHANNELS 3 Zrotation Yrotation Xrotation
                    JOINT LeftHandPinky2
                    {
                      OFFSET 5.087849 -1.331141 -1.77123
                      CHANNELS 3 Zrotation Yrotation Xrotation
                      JOINT LeftHandPinky3
                      {
                        OFFSET 3.070974 4e-06 0.0
                        CHANNELS 3 Zrotation Yrotation Xrotation
                        JOINT LeftHandPinky4
                        {
                          OFFSET 1.549672 0.0 1e-06
                          CHANNELS 3 Zrotation Yrotation Xrotation
                          JOINT LeftHandPinkyEnd
                          {
                            OFFSET 1.944893 -0.157802 0.057219
                            CHANNELS 3 Zrotation Yrotation Xrotation
                          }
                        }
                      }
                    }
                  }
                }
              }
            }
          }
          JOINT RightShoulder
          {
            OFFSET -1.380118 23.180309 5.214158
            CHANNELS 3 Zrotation Yrotation Xrotation
            JOINT RightArm
            {
              OFFSET -15.037196 1.2e-05 -5.545604
              CHANNELS 3 Zrotation Yrotation Xrotation
              JOINT RightForeArm
              {
                OFFSET -28.736639 2e-06 -0.002597
                CHANNELS 3 Zrotation Yrotation Xrotation
                JOINT RightHand
                {
                  OFFSET -27.133619 -0.0 0.002613
                  CHANNELS 3 Zrotation Yrotation Xrotation
                  JOINT RightHandThumb1
                  {
                    OFFSET -2.274032 -1.383988 3.163127
                    CHANNELS 3 Zrotation Yrotation Xrotation
                    JOINT RightHandThumb2
                    {
                      OFFSET -4.011429 -1.827466 1.640914
                      CHANNELS 3 Zrotation Yrotation Xrotation
                      JOINT RightHandThumb3
                      {
                        OFFSET -2.794935 -4e-06 -3e-06
                        CHANNELS 3 Zrotation Yrotation Xrotation
                        JOINT RightHandThumbEnd
                        {
                          OFFSET -3.183852 4e-06 1e-06
                          CHANNELS 3 Zrotation Yrotation Xrotation
                        }
                      }
                    }
                  }
                  JOINT RightHandIndex1
                  {
                    OFFSET -3.253266 -0.520057 2.282866
                    CHANNELS 3 Zrotation Yrotation Xrotation
                    JOINT RightHandIndex2
                    {
                      OFFSET -6.341917 0.012471 0.178266
                      CHANNELS 3 Zrotation Yrotation Xrotation
                      JOINT RightHandIndex3
                      {
                        OFFSET -3.654871 -8e-06 -0.0
                        CHANNELS 3 Zrotation Yrotation Xrotation
                        JOINT RightHandIndex4
                        {
                          OFFSET -2.327586 0.0 1e-06
                          CHANNELS 3 Zrotation Yrotation Xrotation
                          JOINT RightHandIndexEnd
                          {
                            OFFSET -2.76179 -0.180656 -0.113078
                            CHANNELS 3 Zrotation Yrotation Xrotation
                          }
                        }
                      }
                    }
                  }
                  JOINT RightHandMiddle1
                  {
                    OFFSET -3.168106 0.246593 1.00103
                    CHANNELS 3 Zrotation Yrotation Xrotation
                    JOINT RightHandMiddle2
                    {
                      OFFSET -6.180828 -0.258836 -1.000895
                      CHANNELS 3 Zrotation Yrotation Xrotation
                      JOINT RightHandMiddle3
                      {
                        OFFSET -4.348901 0.0 -0.0
                        CHANNELS 3 Zrotation Yrotation Xrotation
                        JOINT RightHandMiddle4
                        {
                          OFFSET -3.00024 -4e-06 -2e-06
                          CHANNELS 3 Zrotation Yrotation Xrotation
                          JOINT RightHandMiddleEnd
                          {
                            OFFSET -2.30252 -0.29437 -0.031706
                            CHANNELS 3 Zrotation Yrotation Xrotation
                          }
                        }
                      }
                    }
                  }
                  JOINT RightHandRing1
                  {
                    OFFSET -2.88569 -0.067952 -0.308858
                    CHANNELS 3 Zrotation Yrotation Xrotation
                    JOINT RightHandRing2
                    {
                      OFFSET -5.854198 -0.48613 -1.373731
                      CHANNELS 3 Zrotation Yrotation Xrotation
                      JOINT RightHandRing3
                      {
                        OFFSET -4.33881 -4e-06 -0.0
                        CHANNELS 3 Zrotation Yrotation Xrotation
                        JOINT RightHandRing4
                        {
                          OFFSET -2.654903 -4e-06 4e-06
                          CHANNELS 3 Zrotation Yrotation Xrotation
                          JOINT RightHandRingEnd
                          {
                            OFFSET -1.933568 0.077527 -5.2e-05
                            CHANNELS 3 Zrotation Yrotation Xrotation
                          }
                        }
                      }
                    }
                  }
                  JOINT RightHandPinky1
                  {
                    OFFSET -2.866425 -0.342796 -1.584145
                    CHANNELS 3 Zrotation Yrotation Xrotation
                    JOINT RightHandPinky2
                    {
                      OFFSET -5.091371 -1.332055 -1.772385
                      CHANNELS 3 Zrotation Yrotation Xrotation
                      JOINT RightHandPinky3
                      {
                        OFFSET -3.062664 -4e-06 1e-06
                        CHANNELS 3 Zrotation Yrotation Xrotation
                        JOINT RightHandPinky4
                        {
                          OFFSET -1.546529 4e-06 -2e-06
                          CHANNELS 3 Zrotation Yrotation Xrotation
                          JOINT RightHandPinkyEnd
                          {
                            OFFSET -1.945119 -0.157718 0.057211
                            CHANNELS 3 Zrotation Yrotation Xrotation
                          }
                        }
                      }
                    }
                  }
                }
              }
            }
          }
        }
      }
    }
    JOINT LeftLeg
    {
      OFFSET 10.043214 -8.434526 2.595655
      CHANNELS 3 Zrotation Yrotation Xrotation
      JOINT LeftShin
      {
        OFFSET -1e-06 -43.221752 -0.802913
        CHANNELS 3 Zrotation Yrotation Xrotation
        JOINT LeftFoot
        {
          OFFSET 1e-06 -42.155094 -3.481523
          CHANNELS 3 Zrotation Yrotation Xrotation
          JOINT LeftToeBase
          {
            OFFSET 0.0 -5.059472 13.231529
            CHANNELS 3 Zrotation Yrotation Xrotation
            JOINT LeftToeEnd
            {
              OFFSET -0.009607 -1.647619 6.513017
              CHANNELS 3 Zrotation Yrotation Xrotation
            }
          }
        }
      }
    }
    JOINT RightLeg
    {
      OFFSET -10.047278 -8.29526 2.620317
      CHANNELS 3 Zrotation Yrotation Xrotation
      JOINT RightShin
      {
        OFFSET 1e-06 -43.362206 -0.805556
        CHANNELS 3 Zrotation Yrotation Xrotation
        JOINT RightFoot
        {
          OFFSET 2e-06 -42.117393 -3.478398
          CHANNELS 3 Zrotation Yrotation Xrotation
          JOINT RightToeBase
          {
            OFFSET -0.0 -5.079609 13.284196
            CHANNELS 3 Zrotation Yrotation Xrotation
            JOINT RightToeEnd
            {
              OFFSET 0.009532 -1.634378 6.460591
              CHANNELS 3 Zrotation Yrotation Xrotation
            }
          }
        }
      }
    }
  }
}
MOTION
Frames: 4
Frame Time: 0.03333333333333333
12.629068 0.0 1.196234 180.0 38.325806 180.0 0.0 99.445412 0.0 -0.997309 -0.007255 -0.811218 -1.416326 -0.231807 0.400018 -0.299614 -0.570953 -5.030186 0.522361 -2.563253 11.554596 -2.56387 3.828751 4.211698 1.294729 6.90262 -3.540209 -3.341317 8.508489 -9.194473 0.000112 0.005274 -0.000127 0.001281 0.096114 0.057152 0.674827 -3.605133 -10.534499 -0.677625 3.815629 -10.506234 -12.934847 -6.490804 16.818544 -52.155132 -11.237095 24.410515 1.103286 -44.094025 -0.673194 11.913961 7.535473 -10.804295 -5.837006 9.878217 0.61668 -10.970543 -0.41073 7.102844 -0.003677 8.756981 -0.008856 -16.410116 18.409428 6.01196 -1.834634 2.495838 -2.495118 -10.144328 4.673959 4.625745 -20.936312 0.00999 -0.004118 -21.191908 2.446564 -3.590734 0.000434 0.006709 0.000456 -1.354957 2.228386 -0.732606 -21.290277 0.604728 3.015059 -13.798031 -0.004557 -0.000182 -23.803705 -0.239725 -0.823009 -60.583008 2.603369 -1.404065 -0.281223 1.669621 0.846222 -14.202592 0.107847 1.310581 -34.169159 -0.297336 0.952749 -20.003559 0.960416 1.20887 -0.002348 0.004272 0.000328 -3.41866 0.770727 0.517416 -15.924673 -3.143707 3.001009 -6.329624 -0.005757 0.000879 -18.068577 3.653056 -4.898095 0.001298 0.001286 0.00099 12.663082 7.783782 15.191268 52.748112 9.019392 29.611773 -0.059695 45.835835 0.284807 -2.24463 1.191158 7.025465 2.240818 -5.184817 -3.080589 14.30084 -0.807778 6.970552 0.005024 -12.687224 -0.010756 15.848348 -17.45121 2.794145 1.656851 -1.951709 -2.866586 4.731439 -4.180524 4.985417 11.018567 0.001048 0.000857 12.118883 -3.730275 -2.862048 0.002592 -0.001417 -0.005176 1.287314 -1.922042 -1.494218 14.789906 0.549304 3.867694 14.240755 -1.341826 -6.65979 19.591982 0.113547 -0.658089 49.337963 -0.79392 -6.030811 0.34588 -1.498893 -0.034987 20.208069 3.651347 2.326939 18.783445 -0.014261 -0.004289 10.755236 -0.490327 1.40097 0.00016 -0.004749 -0.002333 3.271717 0.308797 -0.587673 21.472576 11.792198 2.286167 8.161637 0.001467 -0.001191 18.39706 -3.819521 -4.945901 0.009801 0.004988 -0.003054 0.43775 -4.290434 -7.695187 -0.002076 -0.361593 18.296665 -0.629422 -22.443007 -8.642907 1.664765 -1.62397 0.093578 0.002344 -0.006551 0.002633 -9.158249 11.118501 -13.279527 -0.084644 0.284198 18.49301 5.418248 5.942657 -4.588634 -1.44698 0.986448 -2.806815 -0.000884 -0.008228 0.003428 
13.707653 0.0 1.582335 180.0 33.843845 180.0 0.0 99.282677 0.0 -0.945339 -0.006768 -0.725134 -1.458018 -0.311496 0.601699 -0.30883 -0.547738 -4.897841 0.464242 -2.344984 11.415991 -2.361428 3.733406 3.711821 1.306987 6.640592 -3.507398 -3.130149 8.261646 -9.666 0.002209 -0.001817 0.000155 0.005708 0.150134 0.01922 0.678063 -3.559016 -10.574355 -0.678117 3.850104 -10.543694 -12.401675 -7.248837 16.583986 -52.516308 -10.698897 24.828085 0.924167 -42.94426 -0.63659 11.101611 7.379241 -11.288532 -5.882375 9.86779 0.732829 -10.965557 -0.366681 7.149641 -0.006028 8.777066 5.9e-05 -16.42532 18.323814 5.914179 -1.846985 2.498628 -2.505238 -10.170581 4.69352 4.631145 -21.004934 0.00339 0.002445 -21.267036 2.462309 -3.607619 0.005994 0.00504 0.002125 -1.374337 2.264239 -0.730679 -21.335678 0.56294 2.999924 -13.833487 0.007518 0.003353 -23.919086 -0.241136 -0.855617 -60.717213 2.629375 -1.615904 -0.292668 1.705926 0.847276 -14.214716 0.069001 1.300271 -34.261143 -0.271758 0.962763 -20.050774 0.984992 1.203914 -0.002607 -0.001381 0.002938 -3.456889 0.820394 0.508241 -15.915936 -3.184784 3.001461 -6.348513 0.009423 0.005095 -18.141251 3.658784 -4.917105 -0.014221 -0.003414 0.004182 12.089108 8.290088 15.667277 53.094845 9.252905 30.19558 -0.060294 45.70919 0.334308 -1.932341 0.452098 7.522508 2.21719 -5.228629 -3.154766 14.248982 -0.832502 6.957876 -0.001587 -12.699697 0.003216 15.83707 -17.391239 2.729533 1.667502 -1.968604 -2.881871 4.735212 -4.176749 4.989779 11.034926 -0.00157 -0.003561 12.139324 -3.744499 -2.886789 0.00351 0.004495 -0.000262 1.292358 -1.939835 -1.501071 14.813936 0.564783 3.866726 14.268785 -1.338641 -6.688072 19.68889 0.153607 -0.657004 49.539772 -0.73546 -6.085947 0.351537 -1.526363 -0.037451 20.250532 3.692482 2.31692 18.815147 0.008206 -0.015354 10.75806 -0.476738 1.393058 -0.004823 -0.005422 0.007256 3.305926 0.276542 -0.592762 21.488642 11.871597 2.267581 8.176537 -0.003754 -0.000957 18.440512 -3.77211 -4.979296 -0.010892 -0.000878 0.00426 1.14297 -5.900881 -8.719479 0.048798 -0.386189 19.548557 -1.026785 -24.466867 -8.976421 1.659444 -1.599858 0.111558 0.002186 0.01525 0.000281 -10.225796 13.880233 -13.202811 -0.140315 0.426443 15.936212 6.171923 7.122455 -3.898934 -1.45486 1.03831 -3.096321 0.000266 -0.004286 0.006266 
14.762537 0.0 1.927668 180.0 29.90053 180.0 0.0 99.119865 0.0 -0.792144 -0.007055 -0.719303 -1.542948 -0.310446 0.820097 -0.281995 -0.521826 -4.917236 0.344458 -2.269005 11.567265 -2.223926 3.511765 3.20432 1.323872 6.328317 -3.520528 -2.896518 8.156535 -10.085768 0.001414 0.003568 -0.001318 0.002647 0.065438 0.017703 0.679554 -3.648395 -10.593287 -0.68469 3.777854 -10.547729 -12.281723 -7.102185 16.332861 -52.497231 -10.190297 25.287737 0.933142 -41.694782 -0.571944 9.971818 7.430621 -11.695525 -5.867551 9.828649 0.706433 -10.918534 -0.333973 7.171134 -0.002357 8.792775 -0.01032 -16.288242 18.329937 5.996068 -1.842058 2.504144 -2.521826 -10.173324 4.687726 4.618037 -20.984951 0.000195 -0.008298 -21.230543 2.459877 -3.601574 0.004322 0.003236 -0.004648 -1.367589 2.265811 -0.757077 -21.346832 0.573911 3.011082 -13.836895 0.000429 -0.008129 -23.891123 -0.22928 -0.842226 -60.690487 2.673888 -1.580855 -0.294753 1.71349 0.815705 -14.223674 0.064291 1.314692 -34.255863 -0.287647 0.950917 -20.057674 0.978367 1.199297 -0.008239 -0.004526 -0.002196 -3.461359 0.840595 0.489741 -15.92612 -3.226989 3.001122 -6.347642 0.00608 0.009253 -18.144873 3.655157 -4.929375 -0.009073 0.004575 0.002772 11.790571 8.528053 15.393831 53.19511 9.746784 29.596884 -0.055293 45.676949 0.293334 -1.683218 -0.266173 8.270696 2.252737 -5.201418 -3.099277 14.306712 -0.808766 6.967731 0.012496 -12.694229 0.005091 15.813473 -17.569174 2.734507 1.669885 -1.949946 -2.887302 4.742056 -4.194502 4.980795 11.024432 -0.012819 0.02616 12.124236 -3.761673 -2.898306 0.004043 0.003265 0.01265 1.311691 -1.928528 -1.503561 14.786921 0.551415 3.871845 14.23828 -1.367339 -6.686844 19.603642 0.111616 -0.651952 49.329544 -0.706902 -6.11947 0.373962 -1.525961 -0.049356 20.217684 3.66866 2.323926 18.815062 -0.02085 -0.000494 10.760257 -0.506264 1.398199 0.004682 -0.001863 -0.004399 3.311144 0.276607 -0.603679 21.466599 11.836285 2.288332 8.177262 -0.001233 -0.000929 18.443972 -3.804072 -4.957795 0.000451 0.000972 0.01104 1.714754 -7.177612 -9.514538 0.053327 -0.405721 20.469133 -1.622843 -26.396238 -9.088472 1.66467 -1.594609 -0.00841 0.001217 -0.006251 -0.002119 -11.131744 14.801616 -13.03349 -0.091146 0.61492 14.694349 8.536639 8.37203 -2.268028 -1.476292 1.027881 -2.923413 0.001273 -0.00133 -0.00278 
15.961997 0.0 2.222378 180.0 26.363527 180.0 0.0 98.888054 0.0 -0.651143 -0.009107 -0.870687 -1.535139 -0.286034 0.973763 -0.267107 -0.510453 -4.854131 0.32242 -2.221184 11.732315 -2.040294 3.525226 2.887263 1.229383 5.937128 -3.560461 -2.740915 7.903984 -10.468536 0.001392 -0.000406 -0.000917 -0.002927 0.054829 0.014315 0.685216 -3.660652 -10.613723 -0.703878 3.788851 -10.571169 -11.947912 -7.332585 16.096058 -52.488972 -9.529407 26.174089 0.940934 -40.550385 -0.530341 8.803048 7.378728 -11.812087 -5.86976 9.844421 0.707185 -10.911082 -0.340219 7.17185 0.00388 8.788074 -0.00279 -16.2076 18.135303 6.024281 -1.852424 2.502934 -2.506906 -10.180648 4.687711 4.619437 -20.999544 -0.005957 -0.012422 -21.26655 2.449794 -3.598938 0.000489 -0.002506 -0.009358 -1.370572 2.257414 -0.745729 -21.362644 0.561804 3.012853 -13.842063 -0.00268 -0.01211 -23.920605 -0.27668 -0.845675 -60.466484 2.524129 -1.362923 -0.301513 1.698059 0.844062 -14.226239 0.068899 1.291489 -34.236103 -0.299274 0.954959 -20.03793 0.960785 1.214461 0.009857 -0.004641 0.002079 -3.448617 0.806903 0.485109 -15.940639 -3.176445 3.021202 -6.339164 -0.00091 -0.012233 -18.130112 3.646288 -4.913004 0.00295 -7e-05 0.001064 11.511273 8.849121 15.496588 53.366653 10.284389 28.887056 0.117705 45.449493 0.372382 -1.704802 -0.625016 8.433322 2.256831 -5.199996 -3.10214 14.268153 -0.863071 6.986918 -0.009236 -12.693324 0.013565 15.884674 -17.703552 2.686092 1.658885 -1.957562 -2.898692 4.743714 -4.176568 4.99158 11.037107 0.0115 0.014187 12.133237 -3.715385 -2.872913 0.002313 -0.005937 0.006942 1.291466 -1.943022 -1.507447 14.825109 0.587963 3.85143 14.276039 -1.342434 -6.669916 19.722284 0.147494 -0.653025 49.786434 -0.660437 -6.09186 0.346108 -1.516692 -0.036958 20.262657 3.704271 2.291265 18.831409 0.011576 0.005887 10.782098 -0.463663 1.406027 -0.002246 -0.008986 0.004161 3.293021 0.299777 -0.619058 21.501989 11.841807 2.264346 8.193068 0.001023 0.012225 18.449799 -3.805664 -4.947354 -0.0095 0.000489 0.003417 2.387798 -8.603432 -10.224128 0.051328 -0.370375 21.5959 -2.436257 -27.818609 -9.448503 1.690146 -1.585354 -0.048417 -0.002542 0.008255 0.002349 -11.512072 15.233646 -12.601644 -0.014901 0.777338 14.580509 10.780077 9.305241 -0.362114 -1.462191 1.011369 -2.818031 0.000155 0.000117 0.001654 
